<?xml version="1.0" encoding="utf-8"?>
<!-- Generator: Adobe Illustrator 26.5.0, SVG Export Plug-In . SVG Version: 6.00 Build 0)  -->
<svg version="1.1"
	 id="svg2" xmlns:rdf="http://www.w3.org/1999/02/22-rdf-syntax-ns#" xmlns:svg="http://www.w3.org/2000/svg" xmlns:cc="http://creativecommons.org/ns#" xmlns:dc="http://purl.org/dc/elements/1.1/"
	 xmlns="http://www.w3.org/2000/svg" xmlns:xlink="http://www.w3.org/1999/xlink" x="0px" y="0px" viewBox="0 0 165 37.8"
	 style="enable-background:new 0 0 165 37.8;" xml:space="preserve">
<style type="text/css">
	.st0{fill:#FFFFFF;}
</style>
<g id="g10" transform="matrix(1.3333333,0,0,-1.3333333,0,37.795866)">
	<g id="g12" transform="scale(0.1)">
		<path id="path14" class="st0" d="M208.2,0v283.5h-9.7V0H208.2"/>
		<path id="path16" class="st0" d="M52.7,189.2c4.6,6.5,15.1,26.8,46,26.8c21.7,0,33.3-8.7,37.9-13c13.3-13,14.1-31.6,14.1-42.2v-90
			H94.9V150c0,1.6-0.3,20.1-18.9,20.1c-19.7,0-20.3-18.1-20.3-23V70.9H0v141.6h52.7V189.2"/>
		<path id="path18" class="st0" d="M455.4,215.7c-10.4,0-18.9-8.5-18.9-18.9c0-10.4,8.5-18.9,18.9-18.9c9.6,0,13.8,6.9,13.9,6.5
			C474.7,168,446,82.4,406.8,82.4c-12.7,0-16.6,10.3-16.6,23.6c0,15.7,4.5,31.8,10.3,53.5c6,21.5,11.5,42,14.5,53h-37.8
			C372,193.9,335,85.1,303.7,85.1c-3.9,0-8.2,4.2-8.2,11.8c0,4.2,3.6,19,5.5,24.5l12.4,42.3c2.7,8.8,6.6,20.3,6.6,28.7
			c0,14.8-10.3,23.3-22.4,23.3c-34.2,0-48.4-30.5-55.3-42.9l5.8-3.6c3.3,5.4,18.4,31.1,28.7,31.1c1.5,0,2.7-1.8,2.7-7.3
			c0-3.6-2.1-11.8-4.2-19.3l-13-42.9c-2.1-7.9-7.3-23-7.3-33.9c0-20,15.1-29.9,28.4-29.9c48.5,0,69.6,58.7,76.5,75.6l0.6-0.6
			c-0.9-3.3-5.1-21.2-5.1-30.2c0-26,11.6-44.7,37-44.7C466,66.9,506.2,215.7,455.4,215.7"/>
		<path id="path20" class="st0" d="M615.9,157.3v55.3h32.8V206h-25.1v-17.4h23.6V182h-23.6v-24.7H615.9"/>
		<path id="path22" class="st0" d="M677.9,181c0,6.7-0.4,10.6-8.1,10.6c-3.7,0-7.1-2.1-7.2-6.1h-7.7c0.4,8.4,7,11.4,14.5,11.4
			c7.9,0,15.7-2.4,15.7-13.1v-18.4c0-1.7,0.1-4.9,0.3-8.1h-4.9c-0.7,0-2-0.4-2.1,0.5c-0.2,1.8-0.3,3.4-0.4,5.2H678
			c-2.4-4.8-6.7-6.9-12-6.9c-6.6,0-13.4,3.4-13.4,10.9c0,10.8,9.6,13.9,18.7,13.9L677.9,181z M670.6,176c-4.5-0.2-10.3-1.8-10.3-7.4
			c0-4.7,3.3-7.1,7.6-7.1c8.6,0,10.2,7.4,10,14.5H670.6"/>
		<path id="path24" class="st0" d="M720.1,183.4c-0.4,4.8-2.7,8.2-7.9,8.2c-7,0-9.6-6.1-9.6-15.1c0-9,2.7-15.1,9.6-15.1
			c4.8,0,7.8,3.1,8.2,8.7h7.3c-0.6-8.7-7.1-13.9-15.5-13.9c-12.3,0-17.2,8.7-17.2,20.1c0,11.2,5.7,20.7,17.8,20.7
			c8.1,0,14.2-5.1,14.6-13.5H720.1"/>
		<path id="path26" class="st0" d="M737.8,157.3v55.3h7.3v-22h0.2c2.8,4.3,6.9,6.3,12.5,6.3c10,0,13.2-6.7,13.2-13.6v-26h-7.3V180
			c0,6.7-1.8,11.1-8.6,11.2c-2.9,0.1-7.3-2.1-8.7-5.4c-1.7-4-1.2-6.7-1.2-8.9v-19.7H737.8"/>
		<path id="path28" class="st0" d="M784.2,157.3v55.3h7.3v-22h0.2c2.8,4.3,6.9,6.3,12.5,6.3c10,0,13.2-6.7,13.2-13.6v-26H810V180
			c0,6.7-1.8,11.1-8.6,11.2c-2.9,0.1-7.3-2.1-8.7-5.4c-1.7-4-1.2-6.7-1.2-8.9v-19.7H784.2"/>
		<path id="path30" class="st0" d="M864.3,176.5c0-11.9-6.5-20.4-19.1-20.4c-12.6,0-19.1,8.4-19.1,20.4c0,11.9,6.5,20.4,19.1,20.4
			C857.8,196.9,864.3,188.5,864.3,176.5z M845.2,161.4c8.6,0,11.5,6.9,11.5,15.1c0,8.2-2.8,15.1-11.5,15.1
			c-8.7,0-11.5-6.9-11.5-15.1C833.7,168.3,836.6,161.4,845.2,161.4"/>
		<path id="path32" class="st0" d="M896.7,183.4c-0.4,4.8-2.7,8.2-7.9,8.2c-6.9,0-9.6-6.1-9.6-15.1c0-9,2.7-15.1,9.6-15.1
			c4.8,0,7.8,3.1,8.2,8.7h7.3c-0.6-8.7-7.1-13.9-15.5-13.9c-12.3,0-17.2,8.7-17.2,20.1c0,11.2,5.7,20.7,17.8,20.7
			c8.1,0,14.2-5.1,14.6-13.5H896.7"/>
		<path id="path34" class="st0" d="M914.5,157.3v55.3h7.3v-22h0.2c2.8,4.3,6.9,6.3,12.5,6.3c10,0,13.2-6.7,13.2-13.6v-26h-7.3V180
			c0,6.7-1.8,11.1-8.6,11.2c-2.9,0.1-7.3-2.1-8.7-5.4c-1.7-4-1.2-6.7-1.2-8.9v-19.7H914.5"/>
		<path id="path36" class="st0" d="M972.3,196.9c7.3,0,15.5-3.1,14.9-11.8h-7.7c0.3,4.9-3.4,6.5-7.7,6.5c-3.9,0-7-1.8-7-6.1
			c0-4.3,6.6-4.6,9.3-5.4c6.5-2.1,14-2.9,14-11.6c0-9.4-9.2-12.3-17.1-12.3c-8,0-14.8,3.7-14.7,12.6h7.7c0.2-4.7,3.4-7.3,7.8-7.3
			c4.3,0,8.7,1.7,8.7,6.7c0,8.6-23.3,2.1-23.3,17.1C957.2,193.3,965.3,196.9,972.3,196.9"/>
		<path id="path38" class="st0" d="M1020.4,183.4c-0.4,4.8-2.7,8.2-7.9,8.2c-7,0-9.6-6.1-9.6-15.1c0-9,2.7-15.1,9.6-15.1
			c4.8,0,7.8,3.1,8.2,8.7h7.3c-0.6-8.7-7.1-13.9-15.6-13.9c-12.3,0-17.2,8.7-17.2,20.1c0,11.2,5.7,20.7,17.8,20.7
			c8.1,0,14.2-5.1,14.6-13.5H1020.4"/>
		<path id="path40" class="st0" d="M1038.1,157.3v55.3h7.3v-22h0.2c2.8,4.3,6.9,6.3,12.5,6.3c10,0,13.2-6.7,13.2-13.6v-26h-7.3V180
			c0,6.7-1.8,11.1-8.6,11.2c-2.9,0.1-7.3-2.1-8.7-5.4c-1.7-4-1.2-6.7-1.2-8.9v-19.7H1038.1"/>
		<path id="path42" class="st0" d="M1108.8,195.7h7.3v-38.4h-7.1v5.7h-0.2c-2.9-4.8-7.8-6.8-13.2-6.8c-8,0-12.6,6.1-12.6,13.9v25.7
			h7.3V173c0-6.7,1.5-11.6,8.5-11.6c3,0,7,1.5,8.6,5.5c1.4,3.6,1.4,8.1,1.4,9L1108.8,195.7"/>
		<path id="path44" class="st0" d="M1128,157.3v55.3h7.3v-55.3H1128"/>
		<path id="path46" class="st0" d="M1153.4,175.1c-0.5-6.7,2.2-13.7,9.7-13.7c5.7,0,8.5,2.2,9.3,7.8h7.7
			c-1.2-8.7-7.9-13.1-17.1-13.1c-12.3,0-17.2,8.7-17.2,20.1c0,11.2,5.7,20.7,17.8,20.7c11.5-0.2,16.9-7.5,16.9-18.1v-3.6H1153.4z
			 M1172.8,180.2c0.2,6.4-2.8,11.4-9.8,11.4c-6,0-9.7-5.1-9.7-11.4H1172.8"/>
		<path id="path48" class="st0" d="M660.3,126.1V70.9h-9.5l-27.9,46.9h-0.2V70.9h-6.8v55.2h10.5l26.9-45.7h0.2v45.7H660.3"/>
		<path id="path50" class="st0" d="M709.3,90.1c0-11.9-6.5-20.4-19.1-20.4c-12.6,0-19.1,8.4-19.1,20.4c0,11.9,6.5,20.4,19.1,20.4
			C702.7,110.4,709.3,102,709.3,90.1z M690.1,75c8.7,0,11.5,6.9,11.5,15.1c0,8.2-2.8,15.1-11.5,15.1c-8.6,0-11.5-6.9-11.5-15.1
			C678.6,81.9,681.5,75,690.1,75"/>
		<path id="path52" class="st0" d="M725.9,70.9h-7.3v38.4h7.3v-7.4h0.2c1.1,5.3,6,8,11.2,8c0.9,0,1.7-0.1,2.5-0.1v-6.9
			c-1,0.4-2.1,0.4-3.1,0.4c-9.2-0.3-10.8-5.2-10.8-13.3L725.9,70.9"/>
		<path id="path54" class="st0" d="M772.1,126.1h7.3V77.7c0-2.3,0.2-4.6,0.4-6.8h-7.4l-0.2,5.7V77h-0.2c-2.6-5.4-7.7-7.3-13.2-7.3
			c-11.4,0-15.9,10.5-15.9,20.4c0,10.4,5.3,20.4,17.2,20.4c4.9,0,9.7-1.8,11.9-6.4h0.2L772.1,126.1z M761.3,74.8
			c8.8,0,10.9,8.2,10.9,15.4c0,7-2.6,15.2-10.9,15.2c-8.7,0-10.9-8-10.9-15.2C750.4,83,753.1,74.8,761.3,74.8"/>
		<path id="path56" class="st0" d="M848.3,109.3l-13.6-38.4h-8.3l-8.9,31.6h-0.2l-10-31.6h-8.5l-12.7,38.4h7.9l9.3-30.9h0.2
			l9.5,30.9h9.4l8.7-30.3h0.2l9.6,30.3H848.3"/>
		<path id="path58" class="st0" d="M860.3,88.7C859.8,82,862.5,75,870,75c5.6,0,8.5,2.2,9.3,7.8h7.6c-1.1-8.7-7.9-13.1-17-13.1
			c-12.3,0-17.2,8.7-17.2,20.1c0,11.2,5.7,20.7,17.8,20.7c11.5-0.2,16.9-7.5,16.9-18.1v-3.6H860.3z M879.8,93.8
			c0.2,6.4-2.8,11.4-9.8,11.4c-6.1,0-9.6-5.1-9.6-11.4H879.8"/>
		<path id="path60" class="st0" d="M910.4,110.4c7.3,0,15.5-3.1,14.9-11.8h-7.6c0.3,4.9-3.5,6.5-7.7,6.5c-3.9,0-7-1.8-7-6.1
			c0-4.3,6.6-4.6,9.3-5.4c6.5-2.1,14-2.9,14-11.6c0-9.4-9.2-12.3-17-12.3c-8,0-14.8,3.7-14.7,12.5h7.7c0.2-4.7,3.4-7.3,7.8-7.3
			c4.3,0,8.7,1.7,8.7,6.7c0,8.6-23.3,2.1-23.3,17.1C895.4,106.8,903.5,110.4,910.4,110.4"/>
		<path id="path62" class="st0" d="M938.8,109.3v8.2l7.3,2.3v-10.5l8.9,0.2v-5.4l-8.9,0.1V79.4c0-2.8,2.1-4.1,4.7-4.1
			c1.2,0,2.7,0.2,3.8,0.5v-5.6c-1.7-0.1-3.3-0.5-5-0.5c-1.8,0-3.1,0.1-4.9,0.4c-1.1,0.2-3.1,0.9-4.3,2.5c-1.3,1.8-1.7,2-1.7,7.1
			v24.4l-6.6-0.1v5.4L938.8,109.3"/>
		<path id="path64" class="st0" d="M976.9,110.4c7.3,0,15.5-3.1,14.9-11.8h-7.7c0.3,4.9-3.4,6.5-7.7,6.5c-3.9,0-7-1.8-7-6.1
			c0-4.3,6.6-4.6,9.3-5.4c6.5-2.1,14-2.9,14-11.6c0-9.4-9.2-12.3-17.1-12.3c-8,0-14.8,3.7-14.7,12.5h7.7c0.2-4.7,3.4-7.3,7.8-7.3
			c4.3,0,8.6,1.7,8.6,6.7c0,8.6-23.3,2.1-23.3,17.1C961.8,106.8,969.9,110.4,976.9,110.4"/>
		<path id="path66" class="st0" d="M1025,97c-0.4,4.8-2.7,8.2-7.9,8.2c-7,0-9.7-6-9.7-15.1c0-9,2.7-15.1,9.7-15.1
			c4.8,0,7.8,3.1,8.2,8.6h7.3c-0.6-8.6-7-13.9-15.5-13.9c-12.3,0-17.2,8.7-17.2,20.1c0,11.2,5.7,20.7,17.8,20.7
			c8.1,0,14.2-5.1,14.6-13.5L1025,97"/>
		<path id="path68" class="st0" d="M1042.3,70.9v55.2h7.3v-22h0.2c2.8,4.3,6.9,6.3,12.5,6.3c10,0,13.2-6.7,13.2-13.6v-26h-7.3v22.7
			c0,6.7-1.8,11.1-8.6,11.3c-2.9,0.1-7.3-2.1-8.7-5.4c-1.7-4-1.2-6.7-1.2-8.9V70.9H1042.3"/>
		<path id="path70" class="st0" d="M1143.2,109.3l-13.6-38.4h-8.3l-9,31.6h-0.1l-10-31.6h-8.5l-12.7,38.4h7.9l9.3-30.9h0.1l9.6,30.9
			h9.4l8.7-30.3h0.2l9.6,30.3H1143.2"/>
		<path id="path72" class="st0" d="M1155.2,88.7c-0.5-6.7,2.2-13.7,9.6-13.7c5.7,0,8.5,2.2,9.3,7.8h7.7c-1.2-8.7-7.9-13.1-17.1-13.1
			c-12.3,0-17.2,8.7-17.2,20.1c0,11.2,5.7,20.7,17.8,20.7c11.5-0.2,16.9-7.5,16.9-18.1v-3.6H1155.2z M1174.6,93.8
			c0.2,6.4-2.8,11.4-9.8,11.4c-6.1,0-9.6-5.1-9.6-11.4H1174.6"/>
		<path id="path74" class="st0" d="M1191,126.1h8.7v-7.9h-8.7V126.1z M1191.7,70.9v38.4h7.3V70.9H1191.7"/>
		<path id="path76" class="st0" d="M1237.7,70.9h-27.9v5l19.4,28.3h-19v5.1h26.8v-5.1l-19.3-28.3h20V70.9"/>
		<path id="path78" class="st0" d="M677.9,181c0,6.7-0.4,10.6-8.1,10.6c-3.7,0-7.1-2.1-7.2-6.1h-7.7c0.4,8.4,7,11.4,14.5,11.4
			c7.9,0,15.7-2.4,15.7-13.1v-18.4c0-1.7,0.1-4.9,0.3-8.1h-4.9c-0.7,0-2-0.4-2.1,0.5c-0.2,1.8-0.3,3.4-0.4,5.2H678
			c-2.4-4.8-6.7-6.9-12-6.9c-6.6,0-13.4,3.4-13.4,10.9c0,10.8,9.6,13.9,18.7,13.9L677.9,181z M670.6,176c-4.5-0.2-10.3-1.8-10.3-7.4
			c0-4.7,3.3-7.1,7.6-7.1c8.6,0,10.2,7.4,10,14.5H670.6"/>
		<path id="path80" class="st0" d="M720.1,183.4c-0.4,4.8-2.7,8.2-7.9,8.2c-7,0-9.6-6.1-9.6-15.1c0-9,2.7-15.1,9.6-15.1
			c4.8,0,7.8,3.1,8.2,8.7h7.3c-0.6-8.7-7.1-13.9-15.5-13.9c-12.3,0-17.2,8.7-17.2,20.1c0,11.2,5.7,20.7,17.8,20.7
			c8.1,0,14.2-5.1,14.6-13.5H720.1"/>
		<path id="path82" class="st0" d="M737.8,157.3v55.3h7.3v-22h0.2c2.8,4.3,6.9,6.3,12.5,6.3c10,0,13.2-6.7,13.2-13.6v-26h-7.3V180
			c0,6.7-1.8,11.1-8.6,11.2c-2.9,0.1-7.3-2.1-8.7-5.4c-1.7-4-1.2-6.7-1.2-8.9v-19.7H737.8"/>
		<path id="path84" class="st0" d="M784.2,157.3v55.3h7.3v-22h0.2c2.8,4.3,6.9,6.3,12.5,6.3c10,0,13.2-6.7,13.2-13.6v-26H810V180
			c0,6.7-1.8,11.1-8.6,11.2c-2.9,0.1-7.3-2.1-8.7-5.4c-1.7-4-1.2-6.7-1.2-8.9v-19.7H784.2"/>
		<path id="path86" class="st0" d="M864.3,176.5c0-11.9-6.5-20.4-19.1-20.4c-12.6,0-19.1,8.4-19.1,20.4c0,11.9,6.5,20.4,19.1,20.4
			C857.8,196.9,864.3,188.5,864.3,176.5z M845.2,161.4c8.6,0,11.5,6.9,11.5,15.1c0,8.2-2.8,15.1-11.5,15.1
			c-8.7,0-11.5-6.9-11.5-15.1C833.7,168.3,836.6,161.4,845.2,161.4"/>
		<path id="path88" class="st0" d="M896.7,183.4c-0.4,4.8-2.7,8.2-7.9,8.2c-6.9,0-9.6-6.1-9.6-15.1c0-9,2.7-15.1,9.6-15.1
			c4.8,0,7.8,3.1,8.2,8.7h7.3c-0.6-8.7-7.1-13.9-15.5-13.9c-12.3,0-17.2,8.7-17.2,20.1c0,11.2,5.7,20.7,17.8,20.7
			c8.1,0,14.2-5.1,14.6-13.5H896.7"/>
		<path id="path90" class="st0" d="M914.5,157.3v55.3h7.3v-22h0.2c2.8,4.3,6.9,6.3,12.5,6.3c10,0,13.2-6.7,13.2-13.6v-26h-7.3V180
			c0,6.7-1.8,11.1-8.6,11.2c-2.9,0.1-7.3-2.1-8.7-5.4c-1.7-4-1.2-6.7-1.2-8.9v-19.7H914.5"/>
		<path id="path92" class="st0" d="M972.3,196.9c7.3,0,15.5-3.1,14.9-11.8h-7.7c0.3,4.9-3.4,6.5-7.7,6.5c-3.9,0-7-1.8-7-6.1
			c0-4.3,6.6-4.6,9.3-5.4c6.5-2.1,14-2.9,14-11.6c0-9.4-9.2-12.3-17.1-12.3c-8,0-14.8,3.7-14.7,12.6h7.7c0.2-4.7,3.4-7.3,7.8-7.3
			c4.3,0,8.7,1.7,8.7,6.7c0,8.6-23.3,2.1-23.3,17.1C957.2,193.3,965.3,196.9,972.3,196.9"/>
		<path id="path94" class="st0" d="M1020.4,183.4c-0.4,4.8-2.7,8.2-7.9,8.2c-7,0-9.6-6.1-9.6-15.1c0-9,2.7-15.1,9.6-15.1
			c4.8,0,7.8,3.1,8.2,8.7h7.3c-0.6-8.7-7.1-13.9-15.6-13.9c-12.3,0-17.2,8.7-17.2,20.1c0,11.2,5.7,20.7,17.8,20.7
			c8.1,0,14.2-5.1,14.6-13.5H1020.4"/>
		<path id="path96" class="st0" d="M1038.1,157.3v55.3h7.3v-22h0.2c2.8,4.3,6.9,6.3,12.5,6.3c10,0,13.2-6.7,13.2-13.6v-26h-7.3V180
			c0,6.7-1.8,11.1-8.6,11.2c-2.9,0.1-7.3-2.1-8.7-5.4c-1.7-4-1.2-6.7-1.2-8.9v-19.7H1038.1"/>
		<path id="path98" class="st0" d="M1108.8,195.7h7.3v-38.4h-7.1v5.7h-0.2c-2.9-4.8-7.8-6.8-13.2-6.8c-8,0-12.6,6.1-12.6,13.9v25.7
			h7.3V173c0-6.7,1.5-11.6,8.5-11.6c3,0,7,1.5,8.6,5.5c1.4,3.6,1.4,8.1,1.4,9L1108.8,195.7"/>
		<path id="path100" class="st0" d="M1128,157.3v55.3h7.3v-55.3H1128"/>
		<path id="path102" class="st0" d="M1153.4,175.1c-0.5-6.7,2.2-13.7,9.7-13.7c5.7,0,8.5,2.2,9.3,7.8h7.7
			c-1.2-8.7-7.9-13.1-17.1-13.1c-12.3,0-17.2,8.7-17.2,20.1c0,11.2,5.7,20.7,17.8,20.7c11.5-0.2,16.9-7.5,16.9-18.1v-3.6H1153.4z
			 M1172.8,180.2c0.2,6.4-2.8,11.4-9.8,11.4c-6,0-9.7-5.1-9.7-11.4H1172.8"/>
		<path id="path104" class="st0" d="M660.3,126.1V70.9h-9.5l-27.9,46.9h-0.2V70.9h-6.8v55.2h10.5l26.9-45.7h0.2v45.7H660.3"/>
		<path id="path106" class="st0" d="M709.3,90.1c0-11.9-6.5-20.4-19.1-20.4c-12.6,0-19.1,8.4-19.1,20.4c0,11.9,6.5,20.4,19.1,20.4
			C702.7,110.4,709.3,102,709.3,90.1z M690.1,75c8.7,0,11.5,6.9,11.5,15.1c0,8.2-2.8,15.1-11.5,15.1c-8.6,0-11.5-6.9-11.5-15.1
			C678.6,81.9,681.5,75,690.1,75"/>
		<path id="path108" class="st0" d="M725.9,70.9h-7.3v38.4h7.3v-7.4h0.2c1.1,5.3,6,8,11.2,8c0.9,0,1.7-0.1,2.5-0.1v-6.9
			c-1,0.4-2.1,0.4-3.1,0.4c-9.2-0.3-10.8-5.2-10.8-13.3L725.9,70.9"/>
		<path id="path110" class="st0" d="M772.1,126.1h7.3V77.7c0-2.3,0.2-4.6,0.4-6.8h-7.4l-0.2,5.7V77h-0.2c-2.6-5.4-7.7-7.3-13.2-7.3
			c-11.4,0-15.9,10.5-15.9,20.4c0,10.4,5.3,20.4,17.2,20.4c4.9,0,9.7-1.8,11.9-6.4h0.2L772.1,126.1z M761.3,74.8
			c8.8,0,10.9,8.2,10.9,15.4c0,7-2.6,15.2-10.9,15.2c-8.7,0-10.9-8-10.9-15.2C750.4,83,753.1,74.8,761.3,74.8"/>
		<path id="path112" class="st0" d="M848.3,109.3l-13.6-38.4h-8.3l-8.9,31.6h-0.2l-10-31.6h-8.5l-12.7,38.4h7.9l9.3-30.9h0.2
			l9.5,30.9h9.4l8.7-30.3h0.2l9.6,30.3H848.3"/>
		<path id="path114" class="st0" d="M860.3,88.7C859.8,82,862.5,75,870,75c5.6,0,8.5,2.2,9.3,7.8h7.6c-1.1-8.7-7.9-13.1-17-13.1
			c-12.3,0-17.2,8.7-17.2,20.1c0,11.2,5.7,20.7,17.8,20.7c11.5-0.2,16.9-7.5,16.9-18.1v-3.6H860.3z M879.8,93.8
			c0.2,6.4-2.8,11.4-9.8,11.4c-6.1,0-9.6-5.1-9.6-11.4H879.8"/>
		<path id="path116" class="st0" d="M910.4,110.4c7.3,0,15.5-3.1,14.9-11.8h-7.6c0.3,4.9-3.5,6.5-7.7,6.5c-3.9,0-7-1.8-7-6.1
			c0-4.3,6.6-4.6,9.3-5.4c6.5-2.1,14-2.9,14-11.6c0-9.4-9.2-12.3-17-12.3c-8,0-14.8,3.7-14.7,12.5h7.7c0.2-4.7,3.4-7.3,7.8-7.3
			c4.3,0,8.7,1.7,8.7,6.7c0,8.6-23.3,2.1-23.3,17.1C895.4,106.8,903.5,110.4,910.4,110.4"/>
		<path id="path118" class="st0" d="M938.8,109.3v8.2l7.3,2.3v-10.5l8.9,0.2v-5.4l-8.9,0.1V79.4c0-2.8,2.1-4.1,4.7-4.1
			c1.2,0,2.7,0.2,3.8,0.5v-5.6c-1.7-0.1-3.3-0.5-5-0.5c-1.8,0-3.1,0.1-4.9,0.4c-1.1,0.2-3.1,0.9-4.3,2.5c-1.3,1.8-1.7,2-1.7,7.1
			v24.4l-6.6-0.1v5.4L938.8,109.3"/>
		<path id="path120" class="st0" d="M976.9,110.4c7.3,0,15.5-3.1,14.9-11.8h-7.7c0.3,4.9-3.4,6.5-7.7,6.5c-3.9,0-7-1.8-7-6.1
			c0-4.3,6.6-4.6,9.3-5.4c6.5-2.1,14-2.9,14-11.6c0-9.4-9.2-12.3-17.1-12.3c-8,0-14.8,3.7-14.7,12.5h7.7c0.2-4.7,3.4-7.3,7.8-7.3
			c4.3,0,8.6,1.7,8.6,6.7c0,8.6-23.3,2.1-23.3,17.1C961.8,106.8,969.9,110.4,976.9,110.4"/>
		<path id="path122" class="st0" d="M1025,97c-0.4,4.8-2.7,8.2-7.9,8.2c-7,0-9.7-6-9.7-15.1c0-9,2.7-15.1,9.7-15.1
			c4.8,0,7.8,3.1,8.2,8.6h7.3c-0.6-8.6-7-13.9-15.5-13.9c-12.3,0-17.2,8.7-17.2,20.1c0,11.2,5.7,20.7,17.8,20.7
			c8.1,0,14.2-5.1,14.6-13.5L1025,97"/>
		<path id="path124" class="st0" d="M1042.3,70.9v55.2h7.3v-22h0.2c2.8,4.3,6.9,6.3,12.5,6.3c10,0,13.2-6.7,13.2-13.6v-26h-7.3v22.7
			c0,6.7-1.8,11.1-8.6,11.3c-2.9,0.1-7.3-2.1-8.7-5.4c-1.7-4-1.2-6.7-1.2-8.9V70.9H1042.3"/>
		<path id="path126" class="st0" d="M1143.2,109.3l-13.6-38.4h-8.3l-9,31.6h-0.1l-10-31.6h-8.5l-12.7,38.4h7.9l9.3-30.9h0.1
			l9.6,30.9h9.4l8.7-30.3h0.2l9.6,30.3H1143.2"/>
		<path id="path128" class="st0" d="M1155.2,88.7c-0.5-6.7,2.2-13.7,9.6-13.7c5.7,0,8.5,2.2,9.3,7.8h7.7
			c-1.2-8.7-7.9-13.1-17.1-13.1c-12.3,0-17.2,8.7-17.2,20.1c0,11.2,5.7,20.7,17.8,20.7c11.5-0.2,16.9-7.5,16.9-18.1v-3.6H1155.2z
			 M1174.6,93.8c0.2,6.4-2.8,11.4-9.8,11.4c-6.1,0-9.6-5.1-9.6-11.4H1174.6"/>
		<path id="path130" class="st0" d="M1191,126.1h8.7v-7.9h-8.7V126.1z M1191.7,70.9v38.4h7.3V70.9H1191.7"/>
		<path id="path132" class="st0" d="M1237.7,70.9h-27.9v5l19.4,28.3h-19v5.1h26.8v-5.1l-19.3-28.3h20V70.9"/>
	</g>
</g>
</svg>
